<?xml version="1.0" standalone="no"?>
<!DOCTYPE svg PUBLIC "-//W3C//DTD SVG 20010904//EN"
 "http://www.w3.org/TR/2001/REC-SVG-20010904/DTD/svg10.dtd">
<svg version="1.0" xmlns="http://www.w3.org/2000/svg"
 width="1127.857963pt" height="1499.540663pt" viewBox="0 0 1127.857963 1499.540663"
 preserveAspectRatio="xMidYMid meet">

<g transform="translate(-473.051004,1748.830104) scale(0.100000,-0.100000)"
fill="#000000" stroke="none">
<path d="M8250 17479 c-163 -19 -410 -99 -568 -185 -296 -160 -484 -351 -691
-696 -43 -73 -57 -88 -77 -88 -39 0 -100 -36 -121 -72 -10 -18 -39 -80 -63
-138 -76 -182 -122 -251 -256 -382 -150 -146 -289 -242 -495 -341 -269 -130
-548 -202 -919 -237 -127 -12 -192 -33 -241 -77 -57 -52 -79 -100 -86 -192 -8
-101 1 -144 31 -161 22 -11 30 -9 84 25 53 33 66 36 109 32 26 -2 100 -23 163
-45 224 -80 530 -126 835 -126 194 0 305 11 515 50 156 29 203 41 361 95 136
46 159 48 159 16 0 -13 14 -36 33 -54 50 -47 116 -74 417 -171 69 -22 156 -55
194 -72 334 -150 449 -446 345 -889 -66 -278 -250 -630 -584 -1116 -285 -415
-361 -528 -442 -660 -80 -129 -183 -304 -183 -312 0 -2 -12 -22 -27 -46 -61
-97 -240 -471 -300 -627 -34 -91 -121 -345 -138 -405 -83 -295 -110 -434 -144
-757 -26 -231 -2 -644 49 -883 16 -74 42 -180 50 -205 5 -14 16 -52 26 -85
124 -433 339 -823 661 -1196 91 -105 279 -294 363 -366 275 -232 303 -253 550
-425 62 -43 259 -163 365 -223 83 -46 425 -218 505 -254 116 -51 325 -134 430
-171 150 -52 153 -54 147 -102 -6 -44 15 -193 34 -248 7 -19 34 -70 61 -113
56 -92 59 -121 28 -262 -60 -273 -141 -527 -221 -693 -56 -117 -153 -230 -236
-274 -99 -54 -151 -56 -553 -28 -91 7 -274 10 -410 7 -219 -4 -251 -6 -298
-25 -81 -32 -102 -48 -102 -80 0 -32 35 -70 89 -97 21 -10 30 -20 24 -26 -5
-5 -59 -18 -119 -29 -323 -57 -474 -120 -474 -198 0 -78 150 -138 510 -207
186 -35 296 -47 459 -50 l174 -3 2 -109 c2 -120 13 -153 65 -197 22 -18 43
-26 68 -26 122 1 548 211 918 451 66 44 126 79 132 79 6 0 59 -16 117 -35 155
-50 165 -53 333 -66 216 -16 272 3 272 94 0 53 -47 108 -150 174 -202 128
-321 224 -364 293 -85 134 -77 210 72 738 23 78 50 181 62 228 33 129 42 145
136 230 48 44 113 114 145 156 33 42 67 79 78 83 10 3 54 -1 97 -10 318 -61
579 -95 739 -95 109 0 102 8 104 -124 3 -144 31 -236 107 -352 53 -81 55 -87
44 -157 -16 -106 -91 -455 -145 -677 -15 -58 -31 -123 -36 -145 -16 -68 -80
-248 -106 -300 -51 -99 -113 -170 -208 -236 -122 -85 -172 -91 -655 -77 -343
10 -399 9 -513 -6 -147 -19 -201 -39 -204 -76 -4 -32 8 -46 80 -98 31 -24 57
-49 57 -56 0 -13 -81 -35 -210 -56 -257 -43 -370 -76 -430 -128 -62 -53 -51
-111 30 -152 75 -38 322 -95 560 -129 132 -19 422 -40 509 -37 l44 1 1 -95 c1
-86 4 -99 29 -138 77 -118 185 -94 662 145 173 86 269 146 370 227 31 25 60
46 64 46 5 0 28 -7 52 -15 144 -51 414 -82 665 -76 43 1 58 6 83 30 25 24 31
37 31 72 0 39 -5 48 -53 93 -29 28 -81 69 -117 90 -355 214 -487 405 -439 638
6 29 40 172 75 318 198 808 196 802 276 869 219 185 267 294 235 541 -8 69
-18 132 -22 140 -14 38 15 49 160 65 77 8 165 19 195 26 221 44 365 80 465
116 246 86 346 128 546 228 573 286 1111 735 1485 1241 64 87 89 113 111 117
15 3 60 11 98 17 197 31 283 48 480 90 418 90 486 116 520 196 22 54 19 95
-13 145 -34 53 -76 77 -267 154 -77 31 -153 62 -170 69 -16 7 -86 37 -155 67
-171 72 -513 244 -534 268 -16 18 -16 22 -2 50 9 16 39 57 67 91 55 66 152
206 215 310 199 330 378 761 390 940 5 64 2 80 -15 108 -31 49 -76 72 -141 72
-60 0 -77 -9 -146 -71 -45 -40 -176 -129 -234 -159 -198 -101 -463 -170 -712
-186 -179 -11 -191 -4 -518 320 -124 122 -256 249 -295 281 -38 33 -90 78
-115 101 -25 23 -72 64 -105 90 -51 42 -110 90 -212 175 -106 88 -479 340
-645 435 -127 73 -390 209 -493 254 -27 13 -79 36 -115 52 -163 75 -540 207
-720 252 -14 4 -77 20 -140 36 -185 47 -343 76 -499 90 -215 20 -309 31 -373
45 -231 51 -401 223 -498 503 -36 103 -50 193 -57 347 -9 235 10 384 87 685
25 96 159 461 317 860 89 226 183 487 203 565 4 17 17 64 28 105 26 99 47 201
69 335 24 151 23 547 -1 685 -57 323 -92 434 -223 710 -190 398 -545 707 -963
840 -236 75 -527 105 -760 79z m395 -284 c267 -36 427 -93 625 -223 115 -76
292 -253 365 -365 59 -92 171 -316 200 -402 34 -101 76 -283 90 -390 18 -130
19 -401 4 -529 -12 -103 -61 -353 -84 -436 -9 -30 -22 -77 -30 -105 -22 -79
-82 -249 -116 -330 -104 -244 -354 -914 -378 -1015 -5 -19 -22 -87 -39 -150
-56 -218 -66 -303 -66 -560 -1 -208 2 -246 22 -333 64 -278 177 -494 346 -662
157 -155 277 -196 736 -250 454 -54 675 -111 1241 -321 20 -7 60 -24 90 -37
30 -14 101 -46 159 -72 329 -146 677 -349 935 -544 102 -77 218 -171 270 -219
28 -25 77 -71 110 -101 33 -30 114 -107 180 -171 66 -63 135 -128 154 -143 49
-40 30 -53 -45 -32 -325 93 -499 163 -869 351 -551 280 -715 362 -805 403
-123 56 -368 161 -400 171 -14 5 -63 23 -110 40 -121 46 -236 85 -305 104 -33
10 -71 21 -85 26 -14 4 -54 15 -90 25 -36 9 -78 20 -95 25 -28 8 -92 21 -235
50 -30 6 -128 16 -218 22 -403 29 -671 -58 -877 -284 -65 -72 -143 -224 -168
-328 -59 -240 -31 -507 79 -783 162 -404 411 -727 829 -1078 200 -168 460
-348 695 -481 25 -14 63 -36 85 -49 151 -86 343 -175 609 -281 57 -23 238 -83
316 -105 30 -8 78 -22 105 -29 355 -102 784 -110 1078 -20 97 30 143 58 174
106 12 19 27 40 32 46 5 6 57 14 115 18 321 22 639 185 882 453 141 155 200
213 216 213 8 0 50 -25 94 -56 148 -107 354 -218 579 -314 55 -23 123 -53 150
-65 74 -34 242 -95 260 -95 25 0 17 -20 -12 -31 -26 -10 -120 -27 -265 -48
-222 -33 -351 -50 -408 -55 -240 -23 -336 -28 -590 -35 -307 -8 -330 -12 -330
-58 0 -72 107 -160 239 -198 55 -16 270 -38 325 -33 23 2 41 -2 43 -9 6 -17
-101 -138 -302 -339 -183 -184 -343 -323 -495 -431 -290 -206 -689 -408 -970
-492 -41 -12 -86 -26 -100 -31 -83 -29 -494 -100 -668 -116 -119 -10 -124 9
-62 205 79 251 86 308 47 375 -33 58 -69 81 -127 81 -42 0 -54 -5 -84 -34 -43
-42 -81 -113 -141 -266 -59 -149 -93 -218 -159 -320 -60 -92 -102 -135 -148
-152 -42 -15 -358 -17 -465 -3 -111 15 -271 40 -318 51 -22 4 -87 18 -145 29
-308 61 -578 139 -935 268 -404 147 -798 330 -1093 508 -40 24 -75 44 -78 44
-8 0 -314 204 -387 258 -590 436 -943 863 -1170 1417 -71 173 -106 291 -157
525 -30 139 -59 435 -60 605 0 93 23 381 36 450 3 17 12 68 20 115 91 514 314
1063 657 1620 106 173 360 554 489 735 106 150 248 360 248 368 0 2 23 44 51
93 131 227 257 520 289 669 4 22 18 87 31 145 31 143 34 428 5 535 -31 119
-108 264 -183 345 -110 119 -309 242 -498 308 -67 23 -180 70 -237 98 -39 18
-48 37 -24 51 31 18 125 110 174 172 71 89 69 100 -20 187 -99 94 -149 156
-193 236 -69 127 -81 237 -45 415 28 139 26 211 -6 278 l-27 54 26 40 c30 45
157 198 213 256 125 130 293 243 473 319 245 103 473 135 726 101z m1750
-6485 c55 -11 120 -24 145 -29 25 -5 88 -21 140 -35 52 -14 120 -32 150 -40
137 -36 467 -159 638 -237 35 -16 66 -29 69 -29 3 0 260 -127 572 -283 476
-237 627 -309 856 -408 276 -119 644 -218 1066 -288 88 -15 387 -14 428 0 49
17 58 2 35 -61 -40 -111 -213 -239 -371 -274 -95 -21 -345 -21 -468 -1 -224
38 -431 107 -645 215 -108 54 -117 56 -146 29 -37 -35 -33 -80 12 -117 74 -61
331 -181 507 -238 203 -65 301 -79 532 -79 202 0 255 9 390 62 271 108 473
295 525 486 l17 62 130 65 c72 36 138 71 146 78 46 39 15 -76 -58 -213 -86
-163 -110 -202 -243 -404 -153 -231 -237 -314 -297 -291 -34 13 -136 13 -170
0 -15 -6 -48 -28 -73 -49 -68 -56 -146 -103 -237 -142 l-80 -34 -175 0 c-196
1 -261 11 -500 78 -212 59 -547 200 -700 295 -45 28 -87 28 -117 0 -69 -64 6
-133 305 -283 168 -83 191 -94 287 -128 218 -78 493 -137 642 -137 39 0 74 -4
77 -9 7 -11 -134 -111 -219 -154 -138 -70 -230 -87 -365 -68 -261 36 -510 132
-950 366 -47 25 -92 45 -101 45 -28 0 -69 -47 -69 -79 0 -40 62 -91 220 -178
30 -17 80 -45 110 -62 30 -18 111 -59 180 -93 155 -75 152 -73 225 -101 33
-13 61 -30 63 -38 4 -20 -64 -57 -136 -76 -33 -8 -132 -16 -238 -20 -184 -6
-296 5 -459 43 -160 38 -473 143 -620 209 -27 12 -75 33 -105 46 -91 38 -299
143 -394 198 -49 28 -91 51 -93 51 -4 0 -32 18 -228 145 -281 182 -618 475
-776 676 -195 246 -328 505 -384 745 -23 101 -35 261 -25 340 32 254 220 432
490 465 108 13 373 1 485 -21z"/>
<path d="M8345 16581 c-119 -55 -178 -160 -154 -274 21 -98 62 -153 150 -197
28 -15 58 -20 111 -20 87 0 136 20 191 76 107 108 103 265 -10 363 -96 86
-183 101 -288 52z"/>
</g>
</svg>
